<svg xmlns="http://www.w3.org/2000/svg" width="1200" height="800" viewBox="0 0 1200 800">
  <rect width="1200" height="800" fill="#0f172a"/>
  <rect x="160" y="210" width="880" height="380" rx="24" fill="#1e293b" stroke="#94a3b8" stroke-width="8"/>
  <g fill="#334155">
    <rect x="210" y="260" width="60" height="50" rx="8"/>
    <rect x="290" y="260" width="60" height="50" rx="8"/>
    <rect x="370" y="260" width="60" height="50" rx="8"/>
    <rect x="450" y="260" width="60" height="50" rx="8"/>
    <rect x="530" y="260" width="60" height="50" rx="8"/>
    <rect x="610" y="260" width="60" height="50" rx="8"/>
    <rect x="690" y="260" width="60" height="50" rx="8"/>
    <rect x="770" y="260" width="60" height="50" rx="8"/>
    <rect x="850" y="260" width="140" height="50" rx="8"/>
    <rect x="210" y="330" width="90" height="50" rx="8"/>
    <rect x="320" y="330" width="70" height="50" rx="8"/>
    <rect x="410" y="330" width="70" height="50" rx="8"/>
    <rect x="500" y="330" width="260" height="50" rx="8"/>
    <rect x="780" y="330" width="90" height="50" rx="8"/>
    <rect x="890" y="330" width="100" height="50" rx="8"/>
    <rect x="210" y="400" width="140" height="50" rx="8"/>
    <rect x="370" y="400" width="440" height="50" rx="8"/>
    <rect x="830" y="400" width="160" height="50" rx="8"/>
  </g>
  
</svg>

